<mxfile host="app.diagrams.net" modified="2020-12-18T08:31:57.188Z" agent="5.0 (Windows NT 10.0; Win64; x64) AppleWebKit/537.36 (KHTML, like Gecko) Chrome/87.0.4280.88 Safari/537.36" etag="blEo9N2ZnBknpF-YSr8z" version="14.0.5" type="github">
  <diagram id="cvXcHfDmZ2K7tSHHE3jo" name="Page-1">
    <mxGraphModel dx="2889" dy="2266" grid="1" gridSize="10" guides="1" tooltips="1" connect="1" arrows="1" fold="1" page="1" pageScale="1" pageWidth="827" pageHeight="1169" math="0" shadow="0">
      <root>
        <mxCell id="0" />
        <mxCell id="1" parent="0" />
        <mxCell id="mTHxHdozC-Mgo61o22kf-1" style="edgeStyle=orthogonalEdgeStyle;rounded=0;orthogonalLoop=1;jettySize=auto;html=1;exitX=0;exitY=0.5;exitDx=0;exitDy=0;entryX=0.484;entryY=-0.15;entryDx=0;entryDy=0;entryPerimeter=0;" edge="1" parent="1" source="mTHxHdozC-Mgo61o22kf-4" target="mTHxHdozC-Mgo61o22kf-9">
          <mxGeometry relative="1" as="geometry">
            <mxPoint x="-80" y="-105" as="targetPoint" />
          </mxGeometry>
        </mxCell>
        <mxCell id="mTHxHdozC-Mgo61o22kf-2" style="edgeStyle=orthogonalEdgeStyle;rounded=0;orthogonalLoop=1;jettySize=auto;html=1;entryX=0.5;entryY=0;entryDx=0;entryDy=0;" edge="1" parent="1" source="mTHxHdozC-Mgo61o22kf-4" target="mTHxHdozC-Mgo61o22kf-38">
          <mxGeometry relative="1" as="geometry" />
        </mxCell>
        <mxCell id="mTHxHdozC-Mgo61o22kf-3" style="edgeStyle=orthogonalEdgeStyle;rounded=0;orthogonalLoop=1;jettySize=auto;html=1;entryX=0.5;entryY=0;entryDx=0;entryDy=0;" edge="1" parent="1" source="mTHxHdozC-Mgo61o22kf-4" target="mTHxHdozC-Mgo61o22kf-40">
          <mxGeometry relative="1" as="geometry" />
        </mxCell>
        <mxCell id="mTHxHdozC-Mgo61o22kf-4" value="" style="rhombus;" vertex="1" parent="1">
          <mxGeometry x="350" y="-120" width="30" height="30" as="geometry" />
        </mxCell>
        <mxCell id="mTHxHdozC-Mgo61o22kf-5" value="" style="edgeStyle=orthogonalEdgeStyle;rounded=0;orthogonalLoop=1;jettySize=auto;html=1;entryX=0.5;entryY=0;entryDx=0;entryDy=0;" edge="1" parent="1" source="mTHxHdozC-Mgo61o22kf-9" target="mTHxHdozC-Mgo61o22kf-20">
          <mxGeometry relative="1" as="geometry">
            <mxPoint x="-50" y="200" as="targetPoint" />
            <Array as="points">
              <mxPoint y="140" />
              <mxPoint x="20" y="140" />
            </Array>
          </mxGeometry>
        </mxCell>
        <mxCell id="mTHxHdozC-Mgo61o22kf-6" style="edgeStyle=orthogonalEdgeStyle;rounded=0;orthogonalLoop=1;jettySize=auto;html=1;entryX=0.08;entryY=0.504;entryDx=0;entryDy=0;entryPerimeter=0;" edge="1" parent="1" source="mTHxHdozC-Mgo61o22kf-9" target="mTHxHdozC-Mgo61o22kf-12">
          <mxGeometry relative="1" as="geometry">
            <mxPoint x="-420" y="140" as="targetPoint" />
            <Array as="points">
              <mxPoint x="-340" y="115" />
              <mxPoint x="-420" y="115" />
              <mxPoint x="-420" y="151" />
            </Array>
          </mxGeometry>
        </mxCell>
        <mxCell id="mTHxHdozC-Mgo61o22kf-7" value="" style="edgeStyle=orthogonalEdgeStyle;rounded=0;orthogonalLoop=1;jettySize=auto;html=1;entryX=0.586;entryY=-0.1;entryDx=0;entryDy=0;entryPerimeter=0;" edge="1" parent="1" source="mTHxHdozC-Mgo61o22kf-9" target="mTHxHdozC-Mgo61o22kf-18">
          <mxGeometry relative="1" as="geometry">
            <mxPoint x="-130" y="220" as="targetPoint" />
            <Array as="points">
              <mxPoint x="-128" y="120" />
              <mxPoint x="-128" y="120" />
            </Array>
          </mxGeometry>
        </mxCell>
        <mxCell id="mTHxHdozC-Mgo61o22kf-8" value="" style="edgeStyle=orthogonalEdgeStyle;rounded=0;orthogonalLoop=1;jettySize=auto;html=1;entryX=0.421;entryY=-0.05;entryDx=0;entryDy=0;entryPerimeter=0;" edge="1" parent="1" source="mTHxHdozC-Mgo61o22kf-9" target="mTHxHdozC-Mgo61o22kf-22">
          <mxGeometry relative="1" as="geometry">
            <mxPoint x="-170" y="170" as="targetPoint" />
            <Array as="points">
              <mxPoint x="140" y="170" />
              <mxPoint x="159" y="170" />
            </Array>
          </mxGeometry>
        </mxCell>
        <mxCell id="mTHxHdozC-Mgo61o22kf-9" value="" style="html=1;points=[];perimeter=orthogonalPerimeter;fillColor=#000000;strokeColor=none;" vertex="1" parent="1">
          <mxGeometry x="-510" y="70" width="740" height="20" as="geometry" />
        </mxCell>
        <mxCell id="mTHxHdozC-Mgo61o22kf-10" value="" style="edgeStyle=orthogonalEdgeStyle;rounded=0;orthogonalLoop=1;jettySize=auto;html=1;entryX=0.564;entryY=-0.025;entryDx=0;entryDy=0;entryPerimeter=0;" edge="1" parent="1" source="mTHxHdozC-Mgo61o22kf-12" target="mTHxHdozC-Mgo61o22kf-14">
          <mxGeometry relative="1" as="geometry">
            <mxPoint x="-460" y="260" as="targetPoint" />
            <Array as="points">
              <mxPoint x="-461" y="170" />
              <mxPoint x="-461" y="170" />
            </Array>
          </mxGeometry>
        </mxCell>
        <mxCell id="mTHxHdozC-Mgo61o22kf-11" value="" style="edgeStyle=orthogonalEdgeStyle;rounded=0;orthogonalLoop=1;jettySize=auto;html=1;entryX=0.5;entryY=0;entryDx=0;entryDy=0;" edge="1" parent="1" source="mTHxHdozC-Mgo61o22kf-12" target="mTHxHdozC-Mgo61o22kf-16">
          <mxGeometry relative="1" as="geometry">
            <mxPoint x="-360" y="243" as="targetPoint" />
            <Array as="points">
              <mxPoint x="-360" y="243" />
              <mxPoint x="-300" y="243" />
            </Array>
          </mxGeometry>
        </mxCell>
        <mxCell id="mTHxHdozC-Mgo61o22kf-12" value="" style="html=1;points=[];perimeter=orthogonalPerimeter;fillColor=#000000;strokeColor=none;direction=south;" vertex="1" parent="1">
          <mxGeometry x="-510" y="150" width="187.5" height="12.5" as="geometry" />
        </mxCell>
        <mxCell id="mTHxHdozC-Mgo61o22kf-13" style="edgeStyle=orthogonalEdgeStyle;rounded=0;orthogonalLoop=1;jettySize=auto;html=1;exitX=0.5;exitY=1;exitDx=0;exitDy=0;entryX=-0.2;entryY=0.681;entryDx=0;entryDy=0;entryPerimeter=0;" edge="1" parent="1" source="mTHxHdozC-Mgo61o22kf-14" target="mTHxHdozC-Mgo61o22kf-23">
          <mxGeometry relative="1" as="geometry" />
        </mxCell>
        <mxCell id="mTHxHdozC-Mgo61o22kf-14" value="빵 길이 선택" style="html=1;align=center;verticalAlign=top;rounded=1;absoluteArcSize=1;arcSize=10;dashed=0;" vertex="1" parent="1">
          <mxGeometry x="-540" y="280" width="140" height="40" as="geometry" />
        </mxCell>
        <mxCell id="mTHxHdozC-Mgo61o22kf-15" value="" style="edgeStyle=orthogonalEdgeStyle;rounded=0;orthogonalLoop=1;jettySize=auto;html=1;" edge="1" parent="1" source="mTHxHdozC-Mgo61o22kf-16" target="mTHxHdozC-Mgo61o22kf-23">
          <mxGeometry relative="1" as="geometry" />
        </mxCell>
        <mxCell id="mTHxHdozC-Mgo61o22kf-16" value="빵 선택" style="html=1;align=center;verticalAlign=top;rounded=1;absoluteArcSize=1;arcSize=10;dashed=0;" vertex="1" parent="1">
          <mxGeometry x="-370" y="280" width="140" height="40" as="geometry" />
        </mxCell>
        <mxCell id="mTHxHdozC-Mgo61o22kf-17" value="" style="edgeStyle=orthogonalEdgeStyle;rounded=0;orthogonalLoop=1;jettySize=auto;html=1;" edge="1" parent="1" source="mTHxHdozC-Mgo61o22kf-18" target="mTHxHdozC-Mgo61o22kf-25">
          <mxGeometry relative="1" as="geometry">
            <Array as="points">
              <mxPoint x="-140" y="315" />
              <mxPoint x="-70" y="315" />
            </Array>
          </mxGeometry>
        </mxCell>
        <mxCell id="mTHxHdozC-Mgo61o22kf-18" value="치즈 선택" style="html=1;align=center;verticalAlign=top;rounded=1;absoluteArcSize=1;arcSize=10;dashed=0;" vertex="1" parent="1">
          <mxGeometry x="-210" y="230" width="140" height="40" as="geometry" />
        </mxCell>
        <mxCell id="mTHxHdozC-Mgo61o22kf-19" value="" style="edgeStyle=orthogonalEdgeStyle;rounded=0;orthogonalLoop=1;jettySize=auto;html=1;" edge="1" parent="1" source="mTHxHdozC-Mgo61o22kf-20" target="mTHxHdozC-Mgo61o22kf-32">
          <mxGeometry relative="1" as="geometry" />
        </mxCell>
        <mxCell id="mTHxHdozC-Mgo61o22kf-20" value="소스 선택" style="html=1;align=center;verticalAlign=top;rounded=1;absoluteArcSize=1;arcSize=10;dashed=0;" vertex="1" parent="1">
          <mxGeometry x="-50" y="162.5" width="140" height="40" as="geometry" />
        </mxCell>
        <mxCell id="mTHxHdozC-Mgo61o22kf-21" value="" style="edgeStyle=orthogonalEdgeStyle;rounded=0;orthogonalLoop=1;jettySize=auto;html=1;" edge="1" parent="1" source="mTHxHdozC-Mgo61o22kf-22" target="mTHxHdozC-Mgo61o22kf-25">
          <mxGeometry relative="1" as="geometry">
            <Array as="points">
              <mxPoint x="170" y="315" />
              <mxPoint x="110" y="315" />
            </Array>
          </mxGeometry>
        </mxCell>
        <mxCell id="mTHxHdozC-Mgo61o22kf-22" value="토핑 선택" style="html=1;align=center;verticalAlign=top;rounded=1;absoluteArcSize=1;arcSize=10;dashed=0;" vertex="1" parent="1">
          <mxGeometry x="100" y="230" width="140" height="40" as="geometry" />
        </mxCell>
        <mxCell id="mTHxHdozC-Mgo61o22kf-23" value="" style="html=1;points=[];perimeter=orthogonalPerimeter;fillColor=#000000;strokeColor=none;direction=south;" vertex="1" parent="1">
          <mxGeometry x="-540" y="360" width="340" height="10" as="geometry" />
        </mxCell>
        <mxCell id="mTHxHdozC-Mgo61o22kf-24" value="" style="edgeStyle=orthogonalEdgeStyle;rounded=0;orthogonalLoop=1;jettySize=auto;html=1;entryX=1;entryY=0.5;entryDx=0;entryDy=0;" edge="1" parent="1" source="mTHxHdozC-Mgo61o22kf-25" target="mTHxHdozC-Mgo61o22kf-28">
          <mxGeometry relative="1" as="geometry">
            <mxPoint x="10" y="452.5" as="targetPoint" />
            <Array as="points">
              <mxPoint x="-210" y="435" />
            </Array>
          </mxGeometry>
        </mxCell>
        <mxCell id="mTHxHdozC-Mgo61o22kf-25" value="" style="html=1;points=[];perimeter=orthogonalPerimeter;fillColor=#000000;strokeColor=none;direction=south;" vertex="1" parent="1">
          <mxGeometry x="-210" y="360" width="440" height="10" as="geometry" />
        </mxCell>
        <mxCell id="mTHxHdozC-Mgo61o22kf-26" style="edgeStyle=orthogonalEdgeStyle;rounded=0;orthogonalLoop=1;jettySize=auto;html=1;" edge="1" parent="1" source="mTHxHdozC-Mgo61o22kf-28">
          <mxGeometry relative="1" as="geometry">
            <mxPoint x="-160" as="targetPoint" />
            <Array as="points">
              <mxPoint x="-590" y="435" />
              <mxPoint x="-590" />
            </Array>
          </mxGeometry>
        </mxCell>
        <mxCell id="mTHxHdozC-Mgo61o22kf-27" style="edgeStyle=orthogonalEdgeStyle;rounded=0;orthogonalLoop=1;jettySize=auto;html=1;" edge="1" parent="1" source="mTHxHdozC-Mgo61o22kf-28">
          <mxGeometry relative="1" as="geometry">
            <mxPoint x="-205" y="580" as="targetPoint" />
          </mxGeometry>
        </mxCell>
        <mxCell id="mTHxHdozC-Mgo61o22kf-28" value="" style="rhombus;" vertex="1" parent="1">
          <mxGeometry x="-220" y="420" width="30" height="30" as="geometry" />
        </mxCell>
        <mxCell id="mTHxHdozC-Mgo61o22kf-29" value="&lt;b&gt;[ 모두 선택 되었을 때 ]&lt;/b&gt;" style="text;html=1;strokeColor=none;fillColor=none;align=center;verticalAlign=middle;whiteSpace=wrap;rounded=0;" vertex="1" parent="1">
          <mxGeometry x="-270" y="475" width="130" height="20" as="geometry" />
        </mxCell>
        <mxCell id="mTHxHdozC-Mgo61o22kf-30" value="" style="edgeStyle=orthogonalEdgeStyle;rounded=0;orthogonalLoop=1;jettySize=auto;html=1;" edge="1" parent="1" source="mTHxHdozC-Mgo61o22kf-32">
          <mxGeometry relative="1" as="geometry">
            <mxPoint y="120" as="targetPoint" />
            <Array as="points">
              <mxPoint x="-60" y="255" />
              <mxPoint x="-60" y="120" />
            </Array>
          </mxGeometry>
        </mxCell>
        <mxCell id="mTHxHdozC-Mgo61o22kf-31" value="" style="edgeStyle=orthogonalEdgeStyle;rounded=0;orthogonalLoop=1;jettySize=auto;html=1;" edge="1" parent="1" source="mTHxHdozC-Mgo61o22kf-32">
          <mxGeometry relative="1" as="geometry">
            <Array as="points">
              <mxPoint x="15" y="362" />
            </Array>
            <mxPoint x="15" y="362" as="targetPoint" />
          </mxGeometry>
        </mxCell>
        <mxCell id="mTHxHdozC-Mgo61o22kf-32" value="" style="rhombus;" vertex="1" parent="1">
          <mxGeometry y="240" width="30" height="30" as="geometry" />
        </mxCell>
        <mxCell id="mTHxHdozC-Mgo61o22kf-33" value="&lt;b&gt;[ 3개 초과 선택 됨]&lt;/b&gt;" style="text;html=1;strokeColor=none;fillColor=none;align=center;verticalAlign=middle;whiteSpace=wrap;rounded=0;" vertex="1" parent="1">
          <mxGeometry x="-60" y="260" width="60" height="20" as="geometry" />
        </mxCell>
        <mxCell id="mTHxHdozC-Mgo61o22kf-34" value="&lt;b&gt;[ 3개 이하 ]&lt;/b&gt;" style="text;html=1;strokeColor=none;fillColor=none;align=center;verticalAlign=middle;whiteSpace=wrap;rounded=0;" vertex="1" parent="1">
          <mxGeometry x="-20" y="300" width="70" height="20" as="geometry" />
        </mxCell>
        <mxCell id="mTHxHdozC-Mgo61o22kf-35" style="edgeStyle=orthogonalEdgeStyle;rounded=0;orthogonalLoop=1;jettySize=auto;html=1;entryX=0;entryY=0.5;entryDx=0;entryDy=0;" edge="1" parent="1" source="mTHxHdozC-Mgo61o22kf-36" target="mTHxHdozC-Mgo61o22kf-43">
          <mxGeometry relative="1" as="geometry">
            <Array as="points">
              <mxPoint x="-210" y="735" />
            </Array>
          </mxGeometry>
        </mxCell>
        <mxCell id="mTHxHdozC-Mgo61o22kf-36" value="샌드위치 구성 완료" style="html=1;align=center;verticalAlign=top;rounded=1;absoluteArcSize=1;arcSize=10;dashed=0;" vertex="1" parent="1">
          <mxGeometry x="-280" y="590" width="140" height="40" as="geometry" />
        </mxCell>
        <mxCell id="mTHxHdozC-Mgo61o22kf-37" style="edgeStyle=orthogonalEdgeStyle;rounded=0;orthogonalLoop=1;jettySize=auto;html=1;entryX=0.5;entryY=0;entryDx=0;entryDy=0;" edge="1" parent="1" source="mTHxHdozC-Mgo61o22kf-38" target="mTHxHdozC-Mgo61o22kf-43">
          <mxGeometry relative="1" as="geometry">
            <Array as="points">
              <mxPoint x="365" y="630" />
              <mxPoint x="245" y="630" />
            </Array>
          </mxGeometry>
        </mxCell>
        <mxCell id="mTHxHdozC-Mgo61o22kf-38" value="음료 선택" style="html=1;align=center;verticalAlign=top;rounded=1;absoluteArcSize=1;arcSize=10;dashed=0;" vertex="1" parent="1">
          <mxGeometry x="295" y="130" width="140" height="40" as="geometry" />
        </mxCell>
        <mxCell id="mTHxHdozC-Mgo61o22kf-39" style="edgeStyle=orthogonalEdgeStyle;rounded=0;orthogonalLoop=1;jettySize=auto;html=1;entryX=1;entryY=0.5;entryDx=0;entryDy=0;" edge="1" parent="1" source="mTHxHdozC-Mgo61o22kf-40" target="mTHxHdozC-Mgo61o22kf-43">
          <mxGeometry relative="1" as="geometry">
            <Array as="points">
              <mxPoint x="550" y="735" />
            </Array>
          </mxGeometry>
        </mxCell>
        <mxCell id="mTHxHdozC-Mgo61o22kf-40" value="사이드 선택" style="html=1;align=center;verticalAlign=top;rounded=1;absoluteArcSize=1;arcSize=10;dashed=0;" vertex="1" parent="1">
          <mxGeometry x="480" y="130" width="140" height="40" as="geometry" />
        </mxCell>
        <mxCell id="mTHxHdozC-Mgo61o22kf-41" value="[음료 주문]" style="text;html=1;strokeColor=none;fillColor=none;align=center;verticalAlign=middle;whiteSpace=wrap;rounded=0;" vertex="1" parent="1">
          <mxGeometry x="332.5" y="-70" width="65" height="20" as="geometry" />
        </mxCell>
        <mxCell id="mTHxHdozC-Mgo61o22kf-42" value="[ 사이드 주문]" style="text;html=1;strokeColor=none;fillColor=none;align=center;verticalAlign=middle;whiteSpace=wrap;rounded=0;" vertex="1" parent="1">
          <mxGeometry x="510" y="-70" width="80" height="20" as="geometry" />
        </mxCell>
        <mxCell id="mTHxHdozC-Mgo61o22kf-48" style="edgeStyle=orthogonalEdgeStyle;rounded=0;orthogonalLoop=1;jettySize=auto;html=1;entryX=0.5;entryY=0;entryDx=0;entryDy=0;" edge="1" parent="1" source="mTHxHdozC-Mgo61o22kf-43" target="mTHxHdozC-Mgo61o22kf-47">
          <mxGeometry relative="1" as="geometry" />
        </mxCell>
        <mxCell id="mTHxHdozC-Mgo61o22kf-43" value="" style="rhombus;" vertex="1" parent="1">
          <mxGeometry x="230" y="720" width="30" height="30" as="geometry" />
        </mxCell>
        <mxCell id="mTHxHdozC-Mgo61o22kf-44" value="[샌드위치 주문]" style="text;html=1;strokeColor=none;fillColor=none;align=center;verticalAlign=middle;whiteSpace=wrap;rounded=0;" vertex="1" parent="1">
          <mxGeometry x="210" y="-130" width="90" height="20" as="geometry" />
        </mxCell>
        <mxCell id="mTHxHdozC-Mgo61o22kf-46" style="edgeStyle=orthogonalEdgeStyle;rounded=0;orthogonalLoop=1;jettySize=auto;html=1;entryX=0.5;entryY=0;entryDx=0;entryDy=0;" edge="1" parent="1" source="mTHxHdozC-Mgo61o22kf-45" target="mTHxHdozC-Mgo61o22kf-4">
          <mxGeometry relative="1" as="geometry" />
        </mxCell>
        <mxCell id="mTHxHdozC-Mgo61o22kf-45" value="" style="ellipse;fillColor=#000000;strokeColor=none;" vertex="1" parent="1">
          <mxGeometry x="350" y="-200" width="30" height="30" as="geometry" />
        </mxCell>
        <mxCell id="mTHxHdozC-Mgo61o22kf-49" style="edgeStyle=orthogonalEdgeStyle;rounded=0;orthogonalLoop=1;jettySize=auto;html=1;" edge="1" parent="1" source="mTHxHdozC-Mgo61o22kf-47">
          <mxGeometry relative="1" as="geometry">
            <mxPoint x="245" y="890" as="targetPoint" />
          </mxGeometry>
        </mxCell>
        <mxCell id="mTHxHdozC-Mgo61o22kf-47" value="장바구니에 추가" style="html=1;align=center;verticalAlign=top;rounded=1;absoluteArcSize=1;arcSize=10;dashed=0;" vertex="1" parent="1">
          <mxGeometry x="175" y="800" width="140" height="40" as="geometry" />
        </mxCell>
        <mxCell id="mTHxHdozC-Mgo61o22kf-50" value="" style="ellipse;html=1;shape=endState;fillColor=#000000;strokeColor=#ff0000;" vertex="1" parent="1">
          <mxGeometry x="230" y="890" width="30" height="30" as="geometry" />
        </mxCell>
        <mxCell id="mTHxHdozC-Mgo61o22kf-51" value="&lt;b&gt;[ 하나라도 선택이 안되었을 때 ]&lt;/b&gt;" style="text;html=1;strokeColor=none;fillColor=none;align=center;verticalAlign=middle;whiteSpace=wrap;rounded=0;" vertex="1" parent="1">
          <mxGeometry x="-680" y="220" width="180" height="20" as="geometry" />
        </mxCell>
      </root>
    </mxGraphModel>
  </diagram>
</mxfile>
